# Blender v3.1.2 OBJ File: ''
# www.blender.org
mtllib object.mtl
o Cube
v 0.032833 0.374096 0.494063
v 0.032833 0.331615 0.557355
v 0.032833 0.370862 0.518284
v 0.032833 0.361654 0.538817
v 0.032833 0.347872 0.552537
v -0.032833 0.331615 0.557355
v -0.032833 0.374096 0.494063
v -0.032833 0.347872 0.552537
v -0.032833 0.361654 0.538817
v -0.032833 0.370862 0.518284
v 0.032833 0.326726 -0.557355
v 0.032833 0.374096 -0.486779
v 0.032833 0.344853 -0.551982
v 0.032833 0.360222 -0.536683
v 0.032833 0.370490 -0.513787
v -0.032833 0.374096 -0.486779
v -0.032833 0.326726 -0.557355
v -0.032833 0.370490 -0.513787
v -0.032833 0.360222 -0.536683
v -0.032833 0.344853 -0.551982
v 0.032833 -0.334345 0.557355
v 0.032833 -0.374096 0.498131
v 0.032833 -0.349557 0.552846
v 0.032833 -0.362453 0.540008
v 0.032833 -0.371070 0.520795
v -0.032833 -0.374096 0.498131
v -0.032833 -0.334345 0.557355
v -0.032833 -0.371070 0.520795
v -0.032833 -0.362453 0.540008
v -0.032833 -0.349557 0.552846
v 0.032833 -0.374096 -0.503162
v 0.032833 -0.337722 -0.557355
v 0.032833 -0.371327 -0.523901
v 0.032833 -0.363442 -0.541482
v 0.032833 -0.351642 -0.553229
v -0.032833 -0.337722 -0.557355
v -0.032833 -0.374096 -0.503162
v -0.032833 -0.351642 -0.553229
v -0.032833 -0.363442 -0.541482
v -0.032833 -0.371327 -0.523901
vt 0.125000 0.512154
vt 0.375000 0.512154
vt 0.375000 0.736718
vt 0.125000 0.736718
vt 0.006574 0.662636
vt 0.008717 0.655817
vt 0.014819 0.650037
vt 0.023951 0.646175
vt 0.034723 0.644818
vt 0.506312 0.644818
vt 0.517824 0.646268
vt 0.527583 0.650396
vt 0.534105 0.656573
vt 0.536394 0.663860
vt 0.536394 0.958949
vt 0.533841 0.967074
vt 0.526569 0.973963
vt 0.515687 0.978565
vt 0.502850 0.980182
vt 0.032332 0.980182
vt 0.022475 0.978941
vt 0.014119 0.975406
vt 0.008535 0.970117
vt 0.006574 0.963878
vt 0.625000 0.515828
vt 0.875000 0.515828
vt 0.875000 0.735806
vt 0.625000 0.735806
vt 0.875000 0.741238
vt 0.625000 0.741238
vt 0.875000 0.750000
vt 0.625000 0.750000
vt 0.625000 1.000000
vt 0.616237 1.000000
vt 0.616237 0.750000
vt 0.610805 1.000000
vt 0.610805 0.750000
vt 0.375925 0.507503
vt 0.378560 0.503560
vt 0.382503 0.500925
vt 0.387154 0.500000
vt 0.609172 0.500000
vt 0.615229 0.501205
vt 0.620364 0.504636
vt 0.623795 0.509771
vt 0.623919 0.741238
vt 0.620842 0.745843
vt 0.616237 0.748920
vt 0.388282 0.750000
vt 0.383199 0.748989
vt 0.378890 0.746110
vt 0.376011 0.741801
vt 0.625000 0.509771
vt 0.875000 0.509771
vt 0.625000 0.500000
vt 0.875000 0.500000
vt 0.625000 0.250000
vt 0.615229 0.500000
vt 0.615229 0.250000
vt 0.609172 0.250000
vt 0.375000 0.741801
vt 0.125000 0.741801
vt 0.375000 0.750000
vt 0.125000 0.750000
vt 0.375000 1.000000
vt 0.383199 0.750000
vt 0.383199 1.000000
vt 0.388282 1.000000
vt 0.125000 0.507503
vt 0.375000 0.507503
vt 0.125000 0.500000
vt 0.375000 0.500000
vt 0.375000 0.250000
vt 0.382503 0.250000
vt 0.382503 0.500000
vt 0.387154 0.250000
vn 0.0000 -1.0000 0.0000
vn -1.0000 0.0000 0.0000
vn 0.0000 1.0000 0.0000
vn 0.0000 0.9912 0.1323
vn 0.0000 0.9124 0.4092
vn 0.0000 0.7055 0.7087
vn 0.0000 0.2841 0.9588
vn 1.0000 0.0000 0.0000
vn 0.0000 0.9912 -0.1323
vn 0.0000 0.9124 -0.4092
vn 0.0000 0.7055 -0.7087
vn 0.0000 0.2841 -0.9588
vn 0.0000 -0.9912 0.1323
vn 0.0000 -0.9124 0.4092
vn 0.0000 -0.7055 0.7087
vn 0.0000 -0.2841 0.9588
vn 0.0000 0.0000 1.0000
vn 0.0000 -0.9912 -0.1323
vn 0.0000 -0.9124 -0.4092
vn 0.0000 -0.7055 -0.7087
vn 0.0000 -0.2841 -0.9588
vn 0.0000 0.0000 -1.0000
usemtl Material
s off
f 37/1/1 31/2/1 22/3/1 26/4/1
f 26/5/2 28/6/2 29/7/2 30/8/2 27/9/2 6/10/2 8/11/2 9/12/2 10/13/2 7/14/2 16/15/2 18/16/2 19/17/2 20/18/2 17/19/2 36/20/2 38/21/2 39/22/2 40/23/2 37/24/2
f 12/25/3 16/26/3 7/27/3 1/28/3
f 1/28/4 7/27/4 10/29/4 3/30/4
f 3/30/5 10/29/5 9/31/5 4/32/5
f 4/32/6 9/33/6 8/34/6 5/35/6
f 5/35/7 8/34/7 6/36/7 2/37/7
f 31/2/8 33/38/8 34/39/8 35/40/8 32/41/8 11/42/8 13/43/8 14/44/8 15/45/8 12/25/8 1/28/8 3/46/8 4/47/8 5/48/8 2/37/8 21/49/8 23/50/8 24/51/8 25/52/8 22/3/8
f 16/26/9 12/25/9 15/53/9 18/54/9
f 18/54/10 15/53/10 14/55/10 19/56/10
f 19/57/11 14/55/11 13/58/11 20/59/11
f 20/59/12 13/58/12 11/42/12 17/60/12
f 26/4/13 22/3/13 25/61/13 28/62/13
f 28/62/14 25/61/14 24/63/14 29/64/14
f 29/65/15 24/63/15 23/66/15 30/67/15
f 30/67/16 23/66/16 21/49/16 27/68/16
f 21/49/17 2/37/17 6/36/17 27/68/17
f 31/2/18 37/1/18 40/69/18 33/70/18
f 33/70/19 40/69/19 39/71/19 34/72/19
f 34/72/20 39/73/20 38/74/20 35/75/20
f 35/75/21 38/74/21 36/76/21 32/41/21
f 36/76/22 17/60/22 11/42/22 32/41/22
